<svg width="293" height="206" xmlns="http://www.w3.org/2000/svg"><path d="M241.56 20.619c-.366-.251-.317-.403.577-1.81.451-.71.822-1.312.822-1.338 0-.025-1.249-.045-2.773-.045h-2.781v-2.662h2.801c2.157 0 2.773-.04 2.692-.175-.057-.096-.451-.735-.878-1.421-.798-1.29-.798-1.636.004-1.743.398-.053 6.61 4.049 6.824 4.507-2.072 1.635-4.545 3.346-6.82 4.855-.121 0-.331-.075-.468-.168z" fill="none"/><circle cy="177.382" cx="28.75" fill="#fa9006" r="28.75"/><path stroke-width="25" stroke-linejoin="null" stroke-linecap="null" stroke="#fa9006" fill="none" d="M41.17 162.946l84.147-84.147m-17.238-.388l46.348 44.938m-1.439 16.176L267.82 24.692"/><path d="M271.34 7.5l12.543 1.68 1.244 12.596-3.45-3.573-5.68 5.485-6.885-7.13 5.68-5.485L271.34 7.5z" stroke-width="15" stroke-opacity="null" stroke="#fa9006" fill="none"/></svg>